<svg width="148" height="57" viewBox="0 0 148 57" fill="none" xmlns="http://www.w3.org/2000/svg">
<path d="M12.84 56.0458H12V49.4258H12.85V52.2658H16.15V49.4258H17V56.0458H16.15V53.0458H12.84V56.0458Z" fill="black"/>
<path d="M21.49 56.0458H20.55L23 49.4258H24L26.5 55.9958H25.56L24.92 54.2058H22.14L21.49 56.0458ZM23.49 50.4658L22.41 53.4658H24.61L23.53 50.4658H23.49Z" fill="black"/>
<path d="M30.9 55.9958H30.05V49.4158H30.9V55.9958Z" fill="black"/>
<path d="M35.85 55.996H35V49.416H37.25C37.796 49.4046 38.3244 49.6095 38.72 49.986C38.9137 50.1634 39.0673 50.38 39.1708 50.6214C39.2742 50.8628 39.3251 51.1234 39.32 51.386C39.3266 51.8296 39.17 52.2602 38.88 52.596C38.5885 52.9458 38.1863 53.1857 37.74 53.276L39.59 55.996H38.59L36.8 53.316H35.86L35.85 55.996ZM35.85 50.186V52.516H37.22C37.5447 52.5226 37.8597 52.4045 38.1 52.186C38.2157 52.0791 38.3075 51.9491 38.3696 51.8044C38.4316 51.6596 38.4624 51.5034 38.46 51.346C38.4547 51.0348 38.3267 50.7382 38.1038 50.521C37.881 50.3037 37.5812 50.1833 37.27 50.186H35.85Z" fill="black"/>
<path d="M52 54.8759L52.62 55.6958L51.98 56.1758L51.52 55.5759C51.1055 55.9642 50.558 56.1789 49.99 56.1758C49.6748 56.183 49.3613 56.1275 49.0678 56.0124C48.7742 55.8974 48.5064 55.7252 48.28 55.5058C48.0525 55.2923 47.8726 55.0332 47.752 54.7455C47.6314 54.4577 47.5728 54.1478 47.58 53.8358C47.5786 53.4474 47.686 53.0664 47.89 52.7359C48.0914 52.3877 48.3767 52.0955 48.72 51.8858C48.4441 51.5815 48.2755 51.1951 48.24 50.7859C48.2379 50.5844 48.2788 50.3847 48.3598 50.2003C48.4409 50.0158 48.5602 49.8506 48.71 49.7159C49.0121 49.422 49.4186 49.2602 49.84 49.2658C50.1689 49.2574 50.4906 49.3634 50.75 49.5658C51.0157 49.7737 51.2141 50.0555 51.32 50.3759L50.59 50.7658C50.4167 50.3058 50.1667 50.0759 49.84 50.0759C49.7435 50.0709 49.6469 50.0851 49.5559 50.1177C49.465 50.1503 49.3814 50.2007 49.31 50.2658C49.2405 50.333 49.186 50.414 49.1498 50.5036C49.1136 50.5931 49.0967 50.6893 49.1 50.7859C49.105 50.9999 49.1786 51.2067 49.31 51.3759L51.51 54.2458L52.1 53.2458L52.76 53.6459L52 54.8759ZM48.35 53.8759C48.3465 54.0868 48.3885 54.2959 48.473 54.4892C48.5576 54.6825 48.6827 54.8553 48.84 54.9958C49.1603 55.2743 49.5761 55.4176 50 55.3959C50.1949 55.408 50.3902 55.3786 50.5729 55.3096C50.7557 55.2407 50.9217 55.1337 51.06 54.9958L49.2 52.5058C48.9517 52.6411 48.7418 52.8373 48.59 53.0759C48.4431 53.3024 48.3634 53.5659 48.36 53.8358L48.35 53.8759Z" fill="black"/>
<path d="M65 54.2559C65.0102 54.5216 64.9575 54.7859 64.8463 55.0275C64.7351 55.269 64.5685 55.4809 64.36 55.6459C63.9148 55.9998 63.3584 56.184 62.79 56.1659C62.2663 56.1741 61.7553 56.005 61.34 55.6859C60.9122 55.3582 60.606 54.8972 60.47 54.3759L61.28 54.0459C61.3365 54.2306 61.4136 54.4084 61.51 54.5759C61.6049 54.7297 61.7229 54.868 61.86 54.9859C61.9878 55.1035 62.1372 55.1952 62.3 55.2559C62.4611 55.3246 62.6348 55.3586 62.81 55.3559C63.1689 55.3826 63.525 55.2757 63.81 55.0559C63.9287 54.9597 64.0237 54.8375 64.0879 54.6988C64.152 54.5602 64.1835 54.4086 64.18 54.2559C64.183 54.1221 64.1569 53.9893 64.1033 53.8667C64.0498 53.744 63.9702 53.6346 63.87 53.5459C63.5477 53.2847 63.1723 53.097 62.77 52.9959C62.24 52.8059 61.91 52.6759 61.77 52.6159C61.454 52.4815 61.1858 52.2551 61.0003 51.9661C60.8149 51.6772 60.7206 51.3391 60.73 50.9959C60.7274 50.7575 60.7782 50.5215 60.8785 50.3052C60.9789 50.089 61.1263 49.8979 61.31 49.7459C61.71 49.3951 62.2282 49.2093 62.76 49.2259C63.2269 49.2142 63.6855 49.3507 64.07 49.6159C64.4283 49.85 64.6908 50.2048 64.81 50.6159L64.02 50.9459C63.9418 50.701 63.7877 50.4873 63.58 50.3359C63.3493 50.1644 63.0672 50.0763 62.78 50.0859C62.4762 50.0805 62.1798 50.1793 61.94 50.3659C61.8313 50.4421 61.7434 50.5442 61.684 50.6629C61.6247 50.7816 61.5958 50.9132 61.6 51.0459C61.6006 51.1577 61.6251 51.2682 61.6716 51.3699C61.7181 51.4716 61.7858 51.5623 61.87 51.6359C62.2646 51.8956 62.6961 52.0945 63.15 52.2259C63.6924 52.3764 64.1878 52.6619 64.59 53.0559C64.8653 53.3942 65.0107 53.8198 65 54.2559Z" fill="black"/>
<path d="M72.61 49.396H73.71L71.26 52.236L73.88 55.996H72.88L70.72 52.906L69.72 54.086V55.996H68.87V49.396H69.72V52.806L72.61 49.396Z" fill="black"/>
<path d="M78.19 55.996H77.34V49.396H78.2L78.19 55.996Z" fill="black"/>
<path d="M83.14 55.996H82.29V49.396H83.29L86.51 54.536V53.266V49.396H87.36V55.996H86.48L83.11 50.606V51.876L83.14 55.996Z" fill="black"/>
<path d="M100.11 54.2359C100.119 54.5028 100.065 54.7681 99.9543 55.011C99.8433 55.2539 99.6775 55.4678 99.47 55.6359C99.0214 55.9824 98.4666 56.1626 97.9 56.1459C97.3764 56.1541 96.8653 55.985 96.45 55.6659C96.0223 55.3382 95.7161 54.8772 95.58 54.3559L96.39 54.0259C96.4455 54.2158 96.5262 54.3974 96.63 54.5659C96.7282 54.729 96.8533 54.8744 97 54.9959C97.1307 55.1071 97.2796 55.195 97.44 55.2559C97.6011 55.3246 97.7749 55.3586 97.95 55.3559C98.3089 55.3826 98.665 55.2757 98.95 55.0559C99.0687 54.9597 99.1638 54.8375 99.2279 54.6988C99.2921 54.5602 99.3236 54.4086 99.32 54.2559C99.3195 54.1236 99.2927 53.9927 99.2412 53.8708C99.1897 53.7489 99.1145 53.6385 99.02 53.5459C98.68 53.277 98.2834 53.0889 97.86 52.9959C97.33 52.7959 97 52.6759 96.86 52.6059C96.5457 52.4721 96.2786 52.2472 96.0932 51.9603C95.9079 51.6733 95.8127 51.3374 95.82 50.9959C95.8182 50.7576 95.8692 50.5219 95.9695 50.3057C96.0698 50.0895 96.2169 49.8983 96.4 49.7459C96.8 49.3951 97.3183 49.2093 97.85 49.2259C98.3169 49.2142 98.7755 49.3507 99.16 49.6159C99.509 49.8376 99.7705 50.1733 99.9 50.5659L99.11 50.8959C99.0359 50.649 98.8809 50.4341 98.67 50.2859C98.4369 50.1191 98.1566 50.0315 97.87 50.0359C97.567 50.0352 97.272 50.1335 97.03 50.3159C96.9227 50.3934 96.8357 50.4957 96.7764 50.6141C96.7172 50.7325 96.6876 50.8635 96.69 50.9959C96.69 51.1078 96.7142 51.2185 96.7608 51.3203C96.8073 51.4221 96.8753 51.5127 96.96 51.5859C97.3524 51.8497 97.7845 52.0489 98.24 52.1759C98.7833 52.3297 99.2787 52.6187 99.68 53.0159C99.9748 53.3522 100.129 53.7891 100.11 54.2359Z" fill="black"/>
<path d="M106.07 50.196V55.996H105.22V50.196H103.37V49.386H107.92V50.206L106.07 50.196Z" fill="black"/>
<path d="M113.88 56.146C113.551 56.1592 113.222 56.1018 112.917 55.9776C112.612 55.8534 112.337 55.6653 112.11 55.426C111.644 54.9096 111.4 54.2308 111.43 53.536V49.376H112.28V53.576C112.252 54.0423 112.406 54.5013 112.71 54.856C113.025 55.1579 113.444 55.3265 113.88 55.3265C114.316 55.3265 114.735 55.1579 115.05 54.856C115.354 54.5013 115.508 54.0423 115.48 53.576V49.376H116.33V53.536C116.349 53.8812 116.3 54.2269 116.185 54.5529C116.07 54.879 115.892 55.1792 115.66 55.436C115.431 55.6743 115.154 55.8609 114.847 55.9834C114.54 56.1058 114.21 56.1612 113.88 56.146Z" fill="black"/>
<path d="M120.29 55.9959V49.3759H122.29C122.736 49.3543 123.181 49.4239 123.599 49.5804C124.017 49.7369 124.398 49.9769 124.72 50.2859C125.028 50.6009 125.268 50.9752 125.426 51.3861C125.584 51.7971 125.657 52.2359 125.64 52.6759C125.662 53.1179 125.592 53.5597 125.433 53.973C125.275 54.3863 125.032 54.7619 124.72 55.0759C124.398 55.3849 124.017 55.6249 123.599 55.7814C123.181 55.9379 122.736 56.0075 122.29 55.9859L120.29 55.9959ZM121.13 50.1859V55.1859H122.3C122.635 55.2153 122.972 55.1707 123.288 55.0552C123.603 54.9396 123.89 54.7561 124.126 54.5175C124.363 54.2788 124.544 53.9911 124.657 53.6745C124.77 53.358 124.812 53.0205 124.78 52.6859C124.811 52.3521 124.767 52.0157 124.654 51.7004C124.54 51.3851 124.359 51.0986 124.122 50.8612C123.886 50.6237 123.6 50.441 123.285 50.3261C122.97 50.2111 122.634 50.1667 122.3 50.1959L121.13 50.1859Z" fill="black"/>
<path d="M130.29 55.996H129.44V49.366H130.29V55.996Z" fill="black"/>
<path d="M140.78 52.6758C140.792 53.1311 140.709 53.584 140.537 54.0058C140.365 54.4275 140.107 54.8089 139.78 55.1258C139.136 55.7633 138.266 56.121 137.36 56.121C136.454 56.121 135.584 55.7633 134.94 55.1258C134.311 54.461 133.961 53.5808 133.961 52.6658C133.961 51.7508 134.311 50.8705 134.94 50.2058C135.258 49.8877 135.635 49.6354 136.05 49.4632C136.465 49.291 136.91 49.2024 137.36 49.2024C137.81 49.2024 138.255 49.291 138.67 49.4632C139.085 49.6354 139.462 49.8877 139.78 50.2058C140.107 50.5272 140.364 50.9122 140.536 51.3371C140.708 51.7619 140.791 52.2176 140.78 52.6758ZM134.85 52.6758C134.839 53.0228 134.897 53.3686 135.02 53.6931C135.144 54.0175 135.331 54.3142 135.57 54.5658C135.803 54.8096 136.084 55.0022 136.396 55.1313C136.708 55.2604 137.043 55.3232 137.38 55.3158C137.716 55.3243 138.05 55.2619 138.36 55.1327C138.67 55.0035 138.95 54.8103 139.18 54.5658C139.651 54.0469 139.912 53.3714 139.912 52.6708C139.912 51.9702 139.651 51.2946 139.18 50.7758C138.943 50.5384 138.662 50.3501 138.352 50.2216C138.042 50.0932 137.71 50.027 137.375 50.027C137.04 50.027 136.708 50.0932 136.398 50.2216C136.088 50.3501 135.807 50.5384 135.57 50.7758C135.33 51.0289 135.143 51.3273 135.019 51.6534C134.896 51.9796 134.838 52.3272 134.85 52.6758Z" fill="black"/>
<path d="M38.44 23.2959C38.4859 24.6147 38.2521 25.9283 37.754 27.1503C37.2559 28.3722 36.5048 29.475 35.55 30.3859C33.5808 32.2408 30.9648 33.2527 28.26 33.2059C26.6678 33.1339 25.1343 32.5833 23.86 31.6259C22.9775 30.858 22.1705 30.0074 21.45 29.0859L22.28 28.3959C23.2552 29.7607 24.7017 30.7155 26.34 31.0759C27.1021 31.165 27.8744 31.0946 28.6078 30.869C29.3412 30.6435 30.0197 30.2678 30.6 29.7659C31.5004 29.0727 32.2204 28.1728 32.6991 27.1422C33.1778 26.1117 33.4011 24.981 33.35 23.8459C33.4248 21.9404 32.7581 20.0801 31.49 18.6559C30.1689 17.2705 28.3949 16.4048 26.49 16.2159C25.403 16.1072 24.3069 16.2974 23.32 16.7659L22.7 15.7659C23.8533 15.4992 25.2967 14.4992 27.03 12.7659C27.9674 11.7785 28.7134 10.6256 29.23 9.36588C29.8118 8.17584 30.1193 6.87048 30.13 5.54588C30.0864 4.46537 29.6894 3.42903 29 2.59588C28.6887 2.19783 28.284 1.88277 27.8217 1.67867C27.3594 1.47457 26.8539 1.38774 26.35 1.42588C24.9575 1.52132 23.6435 2.10572 22.64 3.07588C21.3337 4.21218 20.293 5.62157 19.5914 7.20441C18.8898 8.78725 18.5446 10.5049 18.58 12.2359L18.42 27.2959C18.42 28.9959 18.56 30.0759 18.97 30.5259C19.38 30.9759 20.44 31.2659 22.14 31.3559V32.8659L9 32.8059V31.2959C10.2458 31.3338 11.4866 31.123 12.65 30.6759C13.47 30.1692 13.88 29.0892 13.88 27.4359L14 5.76588C13.9966 5.39822 13.9732 5.03101 13.93 4.66588V2.99588C13.88 2.40588 13.54 2.23588 12.93 2.51588L12.1 2.85588V1.57588L13.39 0.92588C14.2778 0.427385 15.2645 0.130362 16.28 0.0558803C16.8703 0.118981 17.4239 0.372765 17.857 0.778777C18.2901 1.18479 18.579 1.7209 18.68 2.30588V2.66588C19.33 2.21588 19.83 1.86588 20.2 1.66588C21.642 0.740126 23.2914 0.186909 25 0.0558803C28 -0.17412 30.1 0.30588 31.48 1.49588C32.2619 2.08123 32.9029 2.83403 33.3563 3.69916C33.8096 4.56429 34.0637 5.51985 34.1 6.49588C34.1 8.69588 33 10.6959 30.8 12.4959C30.0943 12.9743 29.3595 13.4085 28.6 13.7959C30.3775 13.9237 32.0955 14.4907 33.6 15.4459C36.82 17.3792 38.4333 19.9959 38.44 23.2959Z" fill="#9E0700"/>
<path d="M61.56 31.6058L61.42 32.9958H54.06V31.3358C52.2571 32.4953 50.1422 33.0746 48 32.9958C46.2492 33.0072 44.5489 32.4098 43.19 31.3058C41.7639 30.2225 40.7144 28.7183 40.19 27.0058C39.9294 26.232 39.791 25.4223 39.78 24.6058C39.822 23.2612 40.0995 21.9345 40.6 20.6858C41.3848 18.8234 41.9811 16.8871 42.38 14.9058C42.4005 14.1959 42.2087 13.4961 41.8293 12.8958C41.4498 12.2955 40.9 11.822 40.25 11.5358L40.66 10.7058C44.15 10.9758 45.89 12.5658 45.89 15.4458C45.8939 16.1225 45.7995 16.7962 45.61 17.4458C44.86 20.0158 44.11 22.3258 43.36 24.4458C43.2144 24.8911 43.1435 25.3574 43.15 25.8258C43.1523 26.5936 43.3569 27.3472 43.7431 28.0108C44.1293 28.6744 44.6836 29.2246 45.35 29.6058C46.666 30.4348 48.195 30.8622 49.75 30.8358C52.37 30.8358 53.7934 30.0358 54.02 28.4358V17.1458C54.02 14.4791 52.8734 13.1458 50.58 13.1458V11.4558L58.21 11.5258L58.15 27.5258C58.19 30.1558 59.31 31.5158 61.56 31.6058Z" fill="#9E0700"/>
<path d="M83.16 30.1259C83.16 32.2059 84.05 33.3959 85.84 33.7259L85.71 34.9959C81.2367 34.1559 79 31.9925 79 28.5059C79.0067 27.3255 79.241 26.1575 79.69 25.0659C80.5797 23.0688 81.2925 20.9976 81.82 18.8759C81.811 18.0994 81.6077 17.3375 81.2287 16.6598C80.8496 15.982 80.3069 15.41 79.65 14.9959C78.3372 14.0005 76.7375 13.4567 75.09 13.4459C73.4009 13.5259 71.7848 14.1583 70.49 15.2459V27.1459C70.49 29.8059 71.57 31.1459 73.86 31.1959V32.7859L62.92 32.7159V31.1259C65.1733 31.0792 66.2967 29.7459 66.29 27.1259L66.35 13.5759V13.1559C66.35 12.6059 66.01 12.4759 65.46 12.7459L64.7 13.0259L64.77 12.0259L65.87 11.4659C66.6604 11.0551 67.5302 10.8197 68.42 10.7759C69.88 10.9159 70.62 11.7759 70.62 13.4659C72.5385 11.7638 75.0055 10.809 77.57 10.7759C81.51 10.8159 84.1467 12.8892 85.48 16.9959C85.7906 17.8812 85.9659 18.8083 86 19.7459C85.9433 20.9852 85.6656 22.2043 85.18 23.3459L83.67 27.2159C83.3664 28.1577 83.1947 29.137 83.16 30.1259Z" fill="#9E0700"/>
<path d="M104.28 29.5258C102.58 32.0991 100.517 33.3825 98.09 33.3758C94.65 33.3758 92.95 31.1625 92.99 26.7358L93.12 13.7358H91.47C91.0856 13.7126 90.7007 13.771 90.3405 13.9072C89.9802 14.0433 89.6529 14.2542 89.38 14.5258C88.8502 15.3115 88.4642 16.1851 88.24 17.1058H87.35L87.89 12.1058H93.12V6.61579C93.07 6.06579 92.78 5.93579 92.23 6.20579C91.86 6.34579 91.63 6.43579 91.54 6.48579V5.48579C91.9 5.26579 92.27 5.05579 92.64 4.87579C93.4228 4.45485 94.2917 4.21881 95.18 4.18579C96.74 4.31579 97.48 5.44579 97.39 7.55579V12.0258L102.89 12.0858H103V13.6758H97.32L97.25 19.4558L97.19 26.9958C97.19 29.5558 97.97 30.8458 99.67 30.8458C100.58 30.8458 101.78 30.1258 103.24 28.7058L104.28 29.5258Z" fill="#9E0700"/>
<path d="M124.16 39.266C124.121 40.0144 123.905 40.7428 123.53 41.3913C123.154 42.0398 122.63 42.5898 122 42.996C120.17 44.106 118.79 44.926 117.88 45.486C116.03 46.6221 113.919 47.2626 111.75 47.346C110.93 47.346 109.75 46.626 108.11 45.186C106.47 43.746 105.81 42.626 106.04 41.846C106.374 41.0473 106.92 40.3555 107.62 39.846C108.325 39.3019 109.059 38.7978 109.82 38.336L110.37 39.096C109.37 39.506 109.02 40.096 109.21 40.816C109.519 41.8368 110.196 42.7064 111.11 43.256C112.005 43.915 113.079 44.2849 114.19 44.316C115.3 44.316 116.71 43.656 118.41 42.316C119.565 41.0116 120.183 39.3179 120.14 37.576V30.996C118.391 32.2287 116.277 32.8348 114.14 32.716C111.956 32.6537 109.881 31.7446 108.355 30.1809C106.828 28.6171 105.97 26.5212 105.96 24.336C105.986 22.9921 106.243 21.6627 106.72 20.406C107.465 18.5328 108.06 16.6034 108.5 14.636C108.52 13.9261 108.329 13.2263 107.949 12.6259C107.57 12.0256 107.02 11.5521 106.37 11.266L106.78 10.366C110.273 10.686 112.017 12.2893 112.01 15.176C112.012 15.8303 111.915 16.4812 111.72 17.106C110.62 20.596 109.87 22.906 109.48 24.106C109.332 24.5712 109.261 25.0577 109.27 25.546C109.255 26.3102 109.445 27.0644 109.819 27.7308C110.194 28.3971 110.74 28.9513 111.4 29.336C112.726 30.1356 114.253 30.5382 115.8 30.496C118.42 30.546 119.86 29.736 120.14 28.086V16.856C120.093 14.1893 118.993 12.836 116.84 12.796V11.216L124.34 11.146L124.28 34.716C124.23 37.476 124.21 38.996 124.16 39.266Z" fill="#9E0700"/>
<path d="M127 6.54599C126.09 4.76599 133.69 4.54599 132.82 7.19599C132.55 8.02599 129.9 13.096 130.82 14.876C130.82 14.876 127.73 16.536 126.82 14.756C126.13 13.416 127.48 7.61599 126.98 6.63599L127 6.54599Z" fill="#9E0700"/>
<path d="M139.1 19.526C140.7 20.356 142.29 21.176 143.85 22.006C144.687 22.5456 145.377 23.2852 145.857 24.1581C146.338 25.031 146.593 26.0098 146.6 27.006C146.629 27.8745 146.464 28.7386 146.118 29.5358C145.772 30.333 145.254 31.0435 144.6 31.616C143.244 32.8106 141.487 33.4498 139.68 33.406C138.595 33.4608 137.512 33.28 136.504 32.876C135.495 32.4721 134.587 31.8546 133.84 31.066C132.84 29.926 132.39 29.066 132.53 28.386C132.623 27.9793 133.013 27.646 133.7 27.386C134.22 27.2562 134.747 27.1626 135.28 27.106L135.83 27.586C135.05 27.776 134.83 28.206 135.14 28.896C135.268 29.1103 135.408 29.3173 135.56 29.516C136.096 30.1168 136.752 30.5983 137.486 30.9291C138.22 31.2598 139.015 31.4325 139.82 31.436C140.732 31.4566 141.622 31.1517 142.33 30.576C142.671 30.3142 142.945 29.9759 143.131 29.5886C143.317 29.2012 143.409 28.7755 143.4 28.346C143.4 27.056 142.4 25.756 140.3 24.426C140.16 24.336 138.56 23.486 135.48 21.876C134.644 21.3816 133.951 20.6782 133.468 19.8349C132.986 18.9916 132.732 18.0374 132.73 17.066C132.695 16.2909 132.818 15.5168 133.089 14.79C133.361 14.0632 133.776 13.3986 134.31 12.836C134.858 12.2903 135.513 11.8646 136.235 11.5857C136.956 11.3068 137.727 11.1809 138.5 11.216C139.463 11.1724 140.425 11.3406 141.316 11.7086C142.208 12.0766 143.008 12.6355 143.66 13.346C144.66 14.396 145.06 15.206 144.97 15.756C144.88 16.306 144.49 16.486 143.8 16.756C143.44 16.846 142.89 16.936 142.15 17.036L141.67 16.546L142.22 16.416C142.59 16.276 142.63 15.886 142.36 15.246C142.08 14.5618 141.588 13.9855 140.956 13.602C140.324 13.2185 139.586 13.0481 138.85 13.116C136.92 13.066 135.96 14.006 135.96 15.936C135.94 17.0493 136.987 18.246 139.1 19.526Z" fill="#262469"/>
<path d="M104.95 40.9958H9.53003V42.1558H104.95V40.9958Z" fill="black"/>
<path d="M147.14 40.9558H126.04V42.1158H147.14V40.9558Z" fill="black"/>
</svg>
